<svg width="159" height="35" viewBox="0 0 159 35" fill="none" xmlns="http://www.w3.org/2000/svg">
<path d="M4.09224 11.0848C3.38546 11.0848 2.7741 10.9329 2.25815 10.6289C1.74221 10.318 1.34288 9.87622 1.06017 9.30374C0.784522 8.72418 0.646701 8.04214 0.646701 7.25762C0.646701 6.48016 0.784522 5.80519 1.06017 5.2327C1.34288 4.65314 1.74221 4.21141 2.25815 3.90749C2.7741 3.59651 3.38546 3.44102 4.09224 3.44102C4.56578 3.44102 5.01105 3.51877 5.42805 3.67426C5.85211 3.82268 6.21964 4.03825 6.53062 4.32096C6.6437 4.42697 6.70025 4.55066 6.70025 4.69202C6.70025 4.79096 6.67197 4.87931 6.61543 4.95706C6.55889 5.02773 6.49175 5.06307 6.414 5.06307C6.32919 5.06307 6.22671 5.0242 6.10655 4.94646C5.7461 4.66374 5.41745 4.46585 5.1206 4.35276C4.83082 4.23968 4.4951 4.18314 4.11344 4.18314C3.29358 4.18314 2.66102 4.45171 2.21575 4.98886C1.77754 5.51894 1.55844 6.2752 1.55844 7.25762C1.55844 8.2471 1.77754 9.01042 2.21575 9.54757C2.66102 10.0777 3.29358 10.3427 4.11344 10.3427C4.48803 10.3427 4.82375 10.2862 5.1206 10.1731C5.41745 10.06 5.7461 9.86209 6.10655 9.57938C6.22671 9.50163 6.32919 9.46276 6.414 9.46276C6.49175 9.46276 6.55889 9.4981 6.61543 9.56878C6.67197 9.63945 6.70025 9.7278 6.70025 9.83382C6.70025 9.97517 6.6437 10.0989 6.53062 10.2049C6.21964 10.4876 5.85211 10.7067 5.42805 10.8622C5.01105 11.0106 4.56578 11.0848 4.09224 11.0848ZM10.5249 5.73098C10.8217 5.70977 10.9701 5.82993 10.9701 6.09143C10.9701 6.20452 10.9383 6.2964 10.8747 6.36708C10.8111 6.43069 10.7016 6.46956 10.5461 6.4837L10.228 6.5155C9.75449 6.55791 9.4011 6.72753 9.16786 7.02438C8.94169 7.31416 8.82861 7.65694 8.82861 8.05274V10.6289C8.82861 10.7703 8.78974 10.8763 8.71199 10.947C8.63425 11.0177 8.53176 11.053 8.40454 11.053C8.27732 11.053 8.17131 11.0177 8.08649 10.947C8.00875 10.8692 7.96988 10.7632 7.96988 10.6289V6.15504C7.96988 6.02076 8.01228 5.91827 8.0971 5.8476C8.18191 5.76985 8.28439 5.73098 8.40454 5.73098C8.51763 5.73098 8.61304 5.76985 8.69079 5.8476C8.76853 5.91827 8.80741 6.01722 8.80741 6.14444V6.73813C8.95583 6.42715 9.16433 6.19038 9.4329 6.02782C9.70855 5.86527 10.0231 5.76985 10.3765 5.74158L10.5249 5.73098ZM15.6007 9.80201C15.6784 9.80201 15.7456 9.83382 15.8021 9.89743C15.8586 9.96104 15.8869 10.0423 15.8869 10.1413C15.8869 10.318 15.7632 10.4805 15.5159 10.6289C15.2614 10.7774 14.9928 10.8904 14.7101 10.9682C14.4274 11.0389 14.1518 11.0742 13.8832 11.0742C13.0845 11.0742 12.452 10.8374 11.9855 10.3639C11.5261 9.89036 11.2964 9.23659 11.2964 8.40259C11.2964 7.87251 11.3989 7.40604 11.6038 7.00318C11.8088 6.59325 12.0951 6.2752 12.4626 6.04903C12.8372 5.82286 13.2612 5.70977 13.7348 5.70977C14.4062 5.70977 14.9398 5.92888 15.3356 6.36708C15.7314 6.80528 15.9293 7.39897 15.9293 8.14815C15.9293 8.28951 15.901 8.39199 15.8445 8.4556C15.788 8.51921 15.6961 8.55102 15.5689 8.55102H12.1551C12.2187 9.76667 12.7948 10.3745 13.8832 10.3745C14.1588 10.3745 14.3956 10.3392 14.5935 10.2685C14.7914 10.1907 15.0034 10.0883 15.2296 9.96104C15.4134 9.85502 15.5371 9.80201 15.6007 9.80201ZM13.7454 6.37768C13.293 6.37768 12.929 6.51903 12.6534 6.80174C12.3848 7.08446 12.2258 7.48378 12.1763 7.99973H15.1766C15.1625 7.47672 15.0317 7.07739 14.7843 6.80174C14.537 6.51903 14.1906 6.37768 13.7454 6.37768ZM19.3043 5.70977C20.5977 5.70977 21.2444 6.38828 21.2444 7.74529V10.6289C21.2444 10.7562 21.2055 10.8586 21.1278 10.9364C21.0571 11.0141 20.9581 11.053 20.8309 11.053C20.7037 11.053 20.6012 11.0141 20.5235 10.9364C20.4457 10.8586 20.4069 10.7562 20.4069 10.6289V10.1201C20.2726 10.424 20.0676 10.6607 19.792 10.8304C19.5163 10.9929 19.1983 11.0742 18.8378 11.0742C18.5056 11.0742 18.1982 11.0071 17.9155 10.8728C17.6398 10.7385 17.4207 10.5512 17.2582 10.3109C17.0956 10.0706 17.0143 9.80555 17.0143 9.51577C17.0143 9.12704 17.1133 8.82666 17.3112 8.61463C17.5091 8.39553 17.8342 8.24004 18.2865 8.14815C18.7389 8.04921 19.3679 7.99973 20.1736 7.99973H20.4069V7.64988C20.4069 7.22581 20.3185 6.91483 20.1418 6.71693C19.9722 6.51903 19.693 6.42009 19.3043 6.42009C18.8237 6.42009 18.336 6.55084 17.8413 6.81235C17.6504 6.9325 17.5161 6.99257 17.4384 6.99257C17.3536 6.99257 17.2829 6.96077 17.2264 6.89716C17.1698 6.83355 17.1415 6.75227 17.1415 6.65332C17.1415 6.55437 17.1698 6.46956 17.2264 6.39888C17.29 6.32114 17.3889 6.24339 17.5232 6.16565C17.7706 6.02429 18.0498 5.91474 18.3607 5.83699C18.6788 5.75218 18.9933 5.70977 19.3043 5.70977ZM18.9544 10.3957C19.3785 10.3957 19.7248 10.2544 19.9934 9.97164C20.269 9.68186 20.4069 9.3108 20.4069 8.85847V8.55102H20.216C19.5941 8.55102 19.1205 8.57929 18.7954 8.63583C18.4703 8.68531 18.2371 8.77365 18.0957 8.90087C17.9614 9.02102 17.8943 9.20125 17.8943 9.44156C17.8943 9.7172 17.9932 9.9469 18.1911 10.1307C18.3961 10.3074 18.6505 10.3957 18.9544 10.3957ZM25.2017 10.3745C25.4491 10.3957 25.5728 10.5088 25.5728 10.7138C25.5728 10.8339 25.5268 10.9258 25.4349 10.9894C25.3501 11.0459 25.2194 11.0671 25.0427 11.053L24.7564 11.0318C24.191 10.9894 23.774 10.8198 23.5054 10.5229C23.2369 10.2261 23.1026 9.77728 23.1026 9.17652V6.5155H22.3923C22.2721 6.5155 22.1767 6.48723 22.106 6.43069C22.0424 6.36708 22.0106 6.2858 22.0106 6.18685C22.0106 6.08083 22.0424 5.99602 22.106 5.93241C22.1767 5.8688 22.2721 5.83699 22.3923 5.83699H23.1026V4.63901C23.1026 4.50472 23.1415 4.40224 23.2192 4.33156C23.2969 4.25381 23.403 4.21494 23.5372 4.21494C23.6645 4.21494 23.7669 4.25381 23.8447 4.33156C23.9224 4.40224 23.9613 4.50472 23.9613 4.63901V5.83699H25.1381C25.2512 5.83699 25.3395 5.8688 25.4031 5.93241C25.4738 5.99602 25.5092 6.08083 25.5092 6.18685C25.5092 6.2858 25.4738 6.36708 25.4031 6.43069C25.3395 6.48723 25.2512 6.5155 25.1381 6.5155H23.9613V9.21892C23.9613 9.60765 24.0391 9.89036 24.1945 10.0671C24.3571 10.2367 24.5974 10.3321 24.9155 10.3533L25.2017 10.3745ZM30.4161 9.80201C30.4938 9.80201 30.561 9.83382 30.6175 9.89743C30.674 9.96104 30.7023 10.0423 30.7023 10.1413C30.7023 10.318 30.5786 10.4805 30.3312 10.6289C30.0768 10.7774 29.8082 10.8904 29.5255 10.9682C29.2428 11.0389 28.9672 11.0742 28.6986 11.0742C27.8999 11.0742 27.2674 10.8374 26.8009 10.3639C26.3415 9.89036 26.1118 9.23659 26.1118 8.40259C26.1118 7.87251 26.2143 7.40604 26.4192 7.00318C26.6242 6.59325 26.9104 6.2752 27.278 6.04903C27.6526 5.82286 28.0766 5.70977 28.5502 5.70977C29.2216 5.70977 29.7552 5.92888 30.151 6.36708C30.5468 6.80528 30.7447 7.39897 30.7447 8.14815C30.7447 8.28951 30.7164 8.39199 30.6599 8.4556C30.6034 8.51921 30.5115 8.55102 30.3843 8.55102H26.9705C27.0341 9.76667 27.6102 10.3745 28.6986 10.3745C28.9742 10.3745 29.211 10.3392 29.4089 10.2685C29.6068 10.1907 29.8188 10.0883 30.045 9.96104C30.2288 9.85502 30.3525 9.80201 30.4161 9.80201ZM28.5608 6.37768C28.1084 6.37768 27.7444 6.51903 27.4688 6.80174C27.2002 7.08446 27.0412 7.48378 26.9917 7.99973H29.992C29.9779 7.47672 29.8471 7.07739 29.5997 6.80174C29.3524 6.51903 29.006 6.37768 28.5608 6.37768ZM36.1552 3.47283C36.2895 3.47283 36.3955 3.5117 36.4733 3.58944C36.551 3.66719 36.5899 3.76614 36.5899 3.88629V10.6289C36.5899 10.7562 36.551 10.8586 36.4733 10.9364C36.3955 11.0141 36.2895 11.053 36.1552 11.053C36.0209 11.053 35.9149 11.0141 35.8372 10.9364C35.7665 10.8586 35.7311 10.7562 35.7311 10.6289V10.0565C35.5756 10.3816 35.3459 10.6325 35.042 10.8092C34.7452 10.9859 34.3953 11.0742 33.9925 11.0742C33.5401 11.0742 33.1408 10.9611 32.7945 10.735C32.4482 10.5088 32.1796 10.1943 31.9888 9.79141C31.7979 9.38148 31.7025 8.90794 31.7025 8.37079C31.7025 7.84071 31.7979 7.37423 31.9888 6.97137C32.1796 6.56851 32.4482 6.25753 32.7945 6.03843C33.1408 5.81932 33.5401 5.70977 33.9925 5.70977C34.3953 5.70977 34.7452 5.79812 35.042 5.97482C35.3459 6.15151 35.5756 6.40242 35.7311 6.72753V3.88629C35.7311 3.75907 35.7665 3.66012 35.8372 3.58944C35.9149 3.5117 36.0209 3.47283 36.1552 3.47283ZM34.1621 10.3639C34.6639 10.3639 35.0491 10.1943 35.3177 9.85502C35.5933 9.5087 35.7311 9.02102 35.7311 8.39199C35.7311 7.76296 35.5933 7.27882 35.3177 6.93957C35.0491 6.60031 34.6639 6.43069 34.1621 6.43069C33.6603 6.43069 33.268 6.60031 32.9853 6.93957C32.7097 7.27882 32.5718 7.75589 32.5718 8.37079C32.5718 8.99982 32.7097 9.49103 32.9853 9.84442C33.268 10.1907 33.6603 10.3639 34.1621 10.3639ZM43.5111 5.70977C43.9634 5.70977 44.3628 5.81932 44.7091 6.03843C45.0554 6.25753 45.324 6.56851 45.5148 6.97137C45.7056 7.37423 45.8011 7.84071 45.8011 8.37079C45.8011 8.90794 45.7056 9.38148 45.5148 9.79141C45.324 10.1943 45.0554 10.5088 44.7091 10.735C44.3628 10.9611 43.9634 11.0742 43.5111 11.0742C43.1082 11.0742 42.7548 10.9859 42.4509 10.8092C42.1541 10.6325 41.9279 10.3816 41.7724 10.0565V10.6289C41.7724 10.7562 41.7335 10.8586 41.6558 10.9364C41.5851 11.0141 41.4826 11.053 41.3484 11.053C41.2141 11.053 41.1081 11.0141 41.0303 10.9364C40.9526 10.8586 40.9137 10.7562 40.9137 10.6289V3.88629C40.9137 3.76614 40.9526 3.66719 41.0303 3.58944C41.1081 3.5117 41.2141 3.47283 41.3484 3.47283C41.4826 3.47283 41.5851 3.5117 41.6558 3.58944C41.7335 3.66012 41.7724 3.75907 41.7724 3.88629V6.72753C41.9279 6.40242 42.1541 6.15151 42.4509 5.97482C42.7548 5.79812 43.1082 5.70977 43.5111 5.70977ZM43.3415 10.3639C43.8433 10.3639 44.232 10.1907 44.5076 9.84442C44.7833 9.49103 44.9211 8.99982 44.9211 8.37079C44.9211 7.75589 44.7833 7.27882 44.5076 6.93957C44.232 6.60031 43.8433 6.43069 43.3415 6.43069C42.8397 6.43069 42.4509 6.60031 42.1753 6.93957C41.9067 7.27882 41.7724 7.76296 41.7724 8.39199C41.7724 9.02102 41.9067 9.5087 42.1753 9.85502C42.4509 10.1943 42.8397 10.3639 43.3415 10.3639ZM50.7432 5.99602C50.821 5.82639 50.9447 5.74158 51.1143 5.74158C51.2203 5.74158 51.3157 5.77692 51.4005 5.8476C51.4854 5.91827 51.5278 6.00662 51.5278 6.11264C51.5278 6.17625 51.5136 6.23279 51.4854 6.28226L48.5063 12.7069C48.471 12.7846 48.4179 12.8447 48.3473 12.8871C48.2837 12.9295 48.2165 12.9507 48.1458 12.9507C48.0398 12.9507 47.9444 12.9154 47.8596 12.8447C47.7818 12.7811 47.743 12.6963 47.743 12.5902C47.743 12.5337 47.7571 12.4772 47.7854 12.4206L48.5275 10.8198L46.4284 6.28226C46.4001 6.23279 46.386 6.17978 46.386 6.12324C46.386 6.01722 46.4319 5.92534 46.5238 5.8476C46.6227 5.76985 46.7288 5.73098 46.8418 5.73098C46.9125 5.73098 46.9797 5.75218 47.0433 5.79459C47.1139 5.83699 47.167 5.89707 47.2023 5.97482L48.9728 9.95044L50.7432 5.99602Z" fill="white"/>
<path d="M58.8507 31.9565H56.1884V19.4426H58.8507V31.9565Z" fill="white"/>
<path d="M5.77868 22.0085C5.36706 22.0026 4.95883 22.0875 4.58027 22.2579C4.20171 22.4283 3.86122 22.6804 3.58072 22.9978C2.98221 23.6502 2.68296 24.5525 2.68296 25.6941C2.68296 26.8357 2.98221 27.7598 3.59104 28.423C3.87586 28.7443 4.22128 28.9992 4.60513 29.1714C4.98898 29.3437 5.40278 29.4295 5.81996 29.4233C6.60421 29.4233 7.23367 29.195 7.70835 28.7492C8.14965 28.3438 8.47485 27.8166 8.64739 27.2271L11.0001 28.1295C10.6906 29.1841 10.0921 30.0974 9.20462 30.8584C8.31718 31.6195 7.1924 32 5.81996 32C4.16891 32 2.78615 31.402 1.67169 30.1952C0.55723 28.9884 0 27.488 0 25.6941C0 23.8785 0.546911 22.3781 1.65105 21.193C2.75519 20.008 4.11731 19.41 5.75805 19.41C7.16144 19.41 8.30686 19.7905 9.1943 20.5516C10.0357 21.2483 10.6403 22.2133 10.9176 23.3022L8.51324 24.2264C8.36888 23.6244 8.06037 23.0801 7.6258 22.6608C7.17279 22.2259 6.56397 22.0085 5.77868 22.0085Z" fill="white"/>
<path d="M15.4177 28.3904C15.7144 28.7067 16.0675 28.958 16.4568 29.1299C16.846 29.3017 17.2637 29.3907 17.6858 29.3917C18.1078 29.3927 18.5259 29.3057 18.9159 29.1358C19.3059 28.9658 19.6601 28.7162 19.9581 28.4013C20.5773 27.7381 20.8868 26.8248 20.8868 25.6398C20.8868 24.4764 20.5773 23.5741 19.9581 22.9217C19.3524 22.2946 18.5371 21.9433 17.6879 21.9433C16.8387 21.9433 16.0235 22.2946 15.4177 22.9217C14.7986 23.5741 14.489 24.4764 14.489 25.6398C14.489 26.8031 14.7986 27.7272 15.4177 28.3904ZM17.6879 19.41C19.4112 19.41 20.8353 19.9971 21.9497 21.1713C23.0642 22.3455 23.6317 23.835 23.6317 25.6506C23.6317 27.4663 23.0745 28.9558 21.9497 30.1409C20.8249 31.3259 19.4112 31.913 17.6879 31.913C15.9853 31.913 14.5716 31.3259 13.4468 30.1409C12.322 28.9558 11.7648 27.4554 11.7648 25.6506C11.7648 23.8459 12.322 22.3564 13.4468 21.1713C14.5716 19.9862 15.975 19.41 17.6879 19.41Z" fill="white"/>
<path d="M30.5765 19.4861V22.3455C30.2861 22.2986 29.993 22.2731 29.6993 22.2694C27.6768 22.2694 26.6758 23.3131 26.6758 25.6289V31.913H23.9929V19.4426H26.6036V21.4431C26.8603 20.8134 27.3062 20.2901 27.8729 19.9536C28.4772 19.5843 29.1659 19.3963 29.8644 19.41C30.1037 19.4078 30.3425 19.4334 30.5765 19.4861Z" fill="white"/>
<path d="M34.2397 24.3677H40.2145C40.205 24.0159 40.1278 23.6697 39.9877 23.3501C39.8476 23.0306 39.6474 22.7443 39.3993 22.5086C38.8936 22.0085 38.161 21.7584 37.2116 21.7584C36.3448 21.7584 35.6431 22.0193 35.1169 22.5412C34.5906 23.0631 34.2913 23.6763 34.2397 24.3677ZM40.5344 27.4337L42.98 28.1839C42.6291 29.2602 41.979 30.1517 41.0194 30.8584C40.0597 31.5651 38.8833 31.913 37.4799 31.913C35.7463 31.913 34.281 31.3368 33.0737 30.1952C31.8663 29.0536 31.2575 27.5207 31.2575 25.5963C31.2575 23.7915 31.8457 22.302 33.0221 21.1496C34.1373 20.0162 35.6313 19.3912 37.1807 19.41C39.0484 19.41 40.5034 19.9645 41.556 21.0626C42.6085 22.1607 43.1337 23.6502 43.1337 25.5245C43.1337 26.0246 43.1131 26.3182 43.0615 26.416H34.1665C34.1776 26.8367 34.2736 27.2501 34.4479 27.6287C34.6223 28.0074 34.871 28.3426 35.1777 28.6122C35.8204 29.1919 36.6434 29.5016 37.4892 29.482C39.0484 29.4885 40.07 28.8036 40.5344 27.4337Z" fill="white"/>
<path d="M46.4266 31.9565H43.7023V14H46.4472V21.23C46.7361 20.7299 47.2108 20.3059 47.8712 19.9688C48.5804 19.6162 49.3574 19.4414 50.1414 19.4578C51.8441 19.4578 53.1752 20.0341 54.1349 21.1974C55.0946 22.3607 55.5693 23.8393 55.5693 25.6441C55.5693 27.4815 55.0636 28.9819 54.0627 30.1669C53.0617 31.352 51.7202 31.9282 50.0486 31.9282C48.3769 31.9282 47.1695 31.3085 46.4266 30.0582V31.9565ZM51.8647 28.4013C52.4529 27.7272 52.7418 26.814 52.7418 25.6615C52.7418 24.5091 52.4529 23.6067 51.875 22.9435C51.2972 22.2803 50.5336 21.9541 49.5842 21.9541C48.6658 21.9541 47.9125 22.2803 47.314 22.9435C46.7155 23.6067 46.4266 24.5091 46.4266 25.6615C46.4266 26.814 46.7258 27.7055 47.314 28.3904C47.9022 29.0754 48.6658 29.4124 49.5842 29.4124C50.5232 29.4124 51.2765 29.0754 51.8647 28.4013Z" fill="white"/>
<path d="M71.44 31.9456H59.6969V29.4885L67.1163 21.9215H59.5731V19.4426H71.4194V21.828L63.9071 29.4603H71.44V31.95V31.9456Z" fill="white"/>
<path d="M72.7502 31.4251C72.5721 31.2433 72.4314 31.0253 72.3368 30.7846C72.2423 30.5438 72.1958 30.2854 72.2003 30.0253C72.1957 29.7635 72.2421 29.5035 72.3366 29.2611C72.4312 29.0187 72.5719 28.7988 72.7502 28.615C72.9217 28.4247 73.1297 28.2743 73.3605 28.1735C73.5913 28.0727 73.8398 28.0238 74.0899 28.0299C74.5962 28.0305 75.0816 28.2409 75.4396 28.615C75.7976 28.989 75.999 29.4962 75.9995 30.0253C76.0054 30.2866 75.9586 30.5463 75.8622 30.7875C75.7657 31.0286 75.6217 31.2459 75.4396 31.4251C75.2631 31.6107 75.0526 31.7572 74.8207 31.8559C74.5888 31.9546 74.3403 32.0035 74.0899 31.9997C73.8409 32.0044 73.5936 31.9559 73.3632 31.8571C73.1329 31.7583 72.9242 31.6113 72.7502 31.4251V31.4251Z" fill="#BFBFBF"/>
<path d="M138.796 23.2887H136.925V29.6829C136.925 29.8026 136.822 29.9052 136.702 29.9052H135.26C135.14 29.9052 135.037 29.8026 135.037 29.6829V23.2887H133.15C133.098 23.2887 133.029 23.2716 132.995 23.2374C132.961 23.2032 132.926 23.1519 132.926 23.0836V21.9552C132.926 21.9039 132.944 21.8355 132.995 21.8013C133.029 21.7671 133.098 21.7329 133.15 21.75H138.796C138.916 21.75 139.019 21.8355 139.019 21.9552V23.0836C139.019 23.2032 138.916 23.2887 138.796 23.2887Z" fill="white"/>
<path d="M144.803 29.8539C144.065 29.9565 143.31 30.0077 142.572 29.9906C141.147 29.9906 139.894 29.6316 139.894 27.6313V23.9897C139.894 21.9894 141.164 21.6474 142.589 21.6474C143.327 21.6303 144.065 21.6816 144.803 21.7842C144.957 21.8013 145.026 21.8697 145.026 22.0065V23.0323C145.026 23.152 144.923 23.2545 144.803 23.2545H142.486C141.971 23.2545 141.782 23.4255 141.782 24.0068V24.9984H144.717C144.837 24.9984 144.94 25.101 144.94 25.2207V26.2636C144.94 26.3832 144.837 26.4858 144.717 26.4858H141.782V27.6484C141.782 28.2126 141.971 28.4007 142.486 28.4007H144.803C144.923 28.4007 145.026 28.5032 145.026 28.6229V29.6487C145.026 29.7684 144.957 29.8368 144.803 29.8539Z" fill="white"/>
<path d="M153.109 29.9052H151.359C151.239 29.9223 151.118 29.8539 151.067 29.7342L149.539 27.3407L148.166 29.6829C148.098 29.8197 148.012 29.9052 147.892 29.9052H146.261C146.227 29.9052 146.176 29.9052 146.141 29.871C146.107 29.8368 146.09 29.8026 146.09 29.7513C146.09 29.7171 146.107 29.7 146.107 29.6829L148.493 25.7165L146.073 21.9552C146.056 21.9381 146.056 21.9039 146.056 21.8868C146.056 21.8013 146.141 21.7329 146.227 21.75H148.029C148.149 21.75 148.235 21.8526 148.304 21.9552L149.711 24.1778L151.084 21.9552C151.136 21.8355 151.239 21.7671 151.359 21.75H152.989C153.075 21.75 153.161 21.8013 153.161 21.8868C153.161 21.9039 153.144 21.9381 153.144 21.9552L150.741 25.7507L153.247 29.6829C153.264 29.7171 153.281 29.7513 153.281 29.7855C153.264 29.8539 153.212 29.9052 153.109 29.9052Z" fill="white"/>
<path d="M130.283 21.7671C130.198 21.7671 130.129 21.8184 130.112 21.9039L128.516 27.8023C128.499 27.9219 128.464 27.9732 128.361 27.9732C128.258 27.9732 128.224 27.9219 128.207 27.8023L126.611 21.9039C126.594 21.8184 126.525 21.7671 126.439 21.7671H124.86C124.809 21.7671 124.757 21.7842 124.723 21.8355C124.689 21.8697 124.671 21.921 124.689 21.9723C124.689 21.9723 126.645 28.7426 126.662 28.811C126.92 29.6145 127.555 30.0078 128.361 30.0078C129.134 30.0419 129.837 29.5461 130.06 28.811C130.095 28.7255 132 21.9723 132 21.9723C132.017 21.921 132 21.8697 131.965 21.8355C131.931 21.8013 131.879 21.7671 131.828 21.7671H130.283Z" fill="white"/>
<path d="M121.359 16.2791H104.935C104.334 16.2791 103.785 16.6039 103.493 17.0997C103.184 17.6126 103.167 18.2452 103.442 18.7581L105.089 21.8697H102.103C101.725 21.8697 101.365 22.0578 101.159 22.3826C100.953 22.7074 100.953 23.1177 101.125 23.4597L106.411 33.41C106.599 33.769 106.977 33.9913 107.372 33.9913C107.767 33.9913 108.144 33.769 108.333 33.41L109.775 30.7087L111.577 34.111C111.868 34.658 112.452 35 113.07 35C113.687 35 114.271 34.658 114.563 34.111L122.801 18.6726C123.075 18.1597 123.058 17.5442 122.749 17.0655C122.475 16.5697 121.943 16.2791 121.359 16.2791ZM114.014 22.7929L110.41 29.529C110.289 29.7684 110.049 29.9052 109.775 29.9052C109.5 29.9052 109.26 29.7513 109.139 29.529L105.587 22.8613C105.484 22.6561 105.484 22.4168 105.604 22.2116C105.724 22.0065 105.947 21.8868 106.17 21.8868H113.447C113.67 21.8868 113.876 21.9894 113.979 22.1774C114.117 22.3655 114.117 22.6048 114.014 22.7929Z" fill="white"/>
<path d="M102.357 11.053C102.223 11.053 102.117 11.0141 102.039 10.9364C101.961 10.8516 101.922 10.742 101.922 10.6077V3.9499C101.922 3.82268 101.961 3.7202 102.039 3.64245C102.124 3.56471 102.233 3.52583 102.368 3.52583H104.88C105.665 3.52583 106.273 3.71666 106.704 4.09832C107.142 4.47998 107.361 5.02067 107.361 5.72038C107.361 6.42009 107.142 6.9643 106.704 7.35303C106.265 7.74176 105.658 7.93612 104.88 7.93612H102.792V10.6077C102.792 10.742 102.753 10.8516 102.675 10.9364C102.597 11.0141 102.491 11.053 102.357 11.053ZM104.795 7.21521C105.933 7.21521 106.502 6.71693 106.502 5.72038C106.502 4.73796 105.933 4.24675 104.795 4.24675H102.792V7.21521H104.795ZM110.604 11.0742C110.116 11.0742 109.685 10.9647 109.311 10.7456C108.943 10.5265 108.657 10.2155 108.452 9.81261C108.254 9.40268 108.155 8.92914 108.155 8.39199C108.155 7.85484 108.254 7.38484 108.452 6.98197C108.657 6.57204 108.943 6.25753 109.311 6.03843C109.685 5.81932 110.116 5.70977 110.604 5.70977C111.092 5.70977 111.523 5.81932 111.898 6.03843C112.272 6.25753 112.558 6.57204 112.756 6.98197C112.961 7.38484 113.064 7.85484 113.064 8.39199C113.064 8.92914 112.961 9.40268 112.756 9.81261C112.558 10.2155 112.272 10.5265 111.898 10.7456C111.523 10.9647 111.092 11.0742 110.604 11.0742ZM110.604 10.3639C111.113 10.3639 111.502 10.1978 111.77 9.86562C112.046 9.52637 112.184 9.03516 112.184 8.39199C112.184 7.76296 112.046 7.27882 111.77 6.93957C111.495 6.59325 111.106 6.42009 110.604 6.42009C110.102 6.42009 109.714 6.59325 109.438 6.93957C109.162 7.27882 109.024 7.76296 109.024 8.39199C109.024 9.02809 109.159 9.51577 109.427 9.85502C109.703 10.1943 110.095 10.3639 110.604 10.3639ZM121.342 6.00662C121.412 5.83699 121.529 5.75218 121.692 5.75218C121.798 5.75218 121.893 5.78752 121.978 5.8582C122.063 5.92888 122.105 6.01722 122.105 6.12324C122.105 6.17271 122.094 6.22572 122.073 6.28226L120.313 10.735C120.271 10.8268 120.207 10.9011 120.123 10.9576C120.045 11.0071 119.956 11.0318 119.858 11.0318C119.766 11.0318 119.677 11.0071 119.592 10.9576C119.515 10.9011 119.455 10.8268 119.412 10.735L117.949 7.01378L116.497 10.735C116.461 10.8268 116.401 10.9011 116.317 10.9576C116.232 11.0071 116.14 11.0318 116.041 11.0318C115.949 11.0318 115.861 11.0071 115.776 10.9576C115.691 10.9011 115.627 10.8268 115.585 10.735L113.825 6.29287C113.804 6.23632 113.793 6.18685 113.793 6.14444C113.793 6.03136 113.839 5.93594 113.931 5.8582C114.03 5.78045 114.136 5.74158 114.249 5.74158C114.419 5.74158 114.539 5.82639 114.61 5.99602L116.062 9.90803L117.557 6.02782C117.599 5.93594 117.656 5.86527 117.727 5.81579C117.804 5.76632 117.886 5.74158 117.97 5.74158C118.062 5.74158 118.144 5.76632 118.214 5.81579C118.292 5.86527 118.349 5.93594 118.384 6.02782L119.879 9.89743L121.342 6.00662ZM127.14 9.80201C127.218 9.80201 127.285 9.83382 127.342 9.89743C127.398 9.96104 127.426 10.0423 127.426 10.1413C127.426 10.318 127.303 10.4805 127.055 10.6289C126.801 10.7774 126.532 10.8904 126.25 10.9682C125.967 11.0389 125.691 11.0742 125.423 11.0742C124.624 11.0742 123.992 10.8374 123.525 10.3639C123.066 9.89036 122.836 9.23659 122.836 8.40259C122.836 7.87251 122.938 7.40604 123.143 7.00318C123.348 6.59325 123.635 6.2752 124.002 6.04903C124.377 5.82286 124.801 5.70977 125.274 5.70977C125.946 5.70977 126.479 5.92888 126.875 6.36708C127.271 6.80528 127.469 7.39897 127.469 8.14815C127.469 8.28951 127.441 8.39199 127.384 8.4556C127.327 8.51921 127.236 8.55102 127.108 8.55102H123.695C123.758 9.76667 124.334 10.3745 125.423 10.3745C125.698 10.3745 125.935 10.3392 126.133 10.2685C126.331 10.1907 126.543 10.0883 126.769 9.96104C126.953 9.85502 127.077 9.80201 127.14 9.80201ZM125.285 6.37768C124.833 6.37768 124.469 6.51903 124.193 6.80174C123.924 7.08446 123.765 7.48378 123.716 7.99973H126.716C126.702 7.47672 126.571 7.07739 126.324 6.80174C126.076 6.51903 125.73 6.37768 125.285 6.37768ZM131.289 5.73098C131.586 5.70977 131.734 5.82993 131.734 6.09143C131.734 6.20452 131.703 6.2964 131.639 6.36708C131.575 6.43069 131.466 6.46956 131.31 6.4837L130.992 6.5155C130.519 6.55791 130.165 6.72753 129.932 7.02438C129.706 7.31416 129.593 7.65694 129.593 8.05274V10.6289C129.593 10.7703 129.554 10.8763 129.476 10.947C129.398 11.0177 129.296 11.053 129.169 11.053C129.042 11.053 128.936 11.0177 128.851 10.947C128.773 10.8692 128.734 10.7632 128.734 10.6289V6.15504C128.734 6.02076 128.776 5.91827 128.861 5.8476C128.946 5.76985 129.049 5.73098 129.169 5.73098C129.282 5.73098 129.377 5.76985 129.455 5.8476C129.533 5.91827 129.572 6.01722 129.572 6.14444V6.73813C129.72 6.42715 129.929 6.19038 130.197 6.02782C130.473 5.86527 130.787 5.76985 131.141 5.74158L131.289 5.73098ZM136.365 9.80201C136.443 9.80201 136.51 9.83382 136.566 9.89743C136.623 9.96104 136.651 10.0423 136.651 10.1413C136.651 10.318 136.527 10.4805 136.28 10.6289C136.026 10.7774 135.757 10.8904 135.474 10.9682C135.192 11.0389 134.916 11.0742 134.647 11.0742C133.849 11.0742 133.216 10.8374 132.75 10.3639C132.29 9.89036 132.061 9.23659 132.061 8.40259C132.061 7.87251 132.163 7.40604 132.368 7.00318C132.573 6.59325 132.859 6.2752 133.227 6.04903C133.601 5.82286 134.025 5.70977 134.499 5.70977C135.17 5.70977 135.704 5.92888 136.1 6.36708C136.496 6.80528 136.694 7.39897 136.694 8.14815C136.694 8.28951 136.665 8.39199 136.609 8.4556C136.552 8.51921 136.46 8.55102 136.333 8.55102H132.919C132.983 9.76667 133.559 10.3745 134.647 10.3745C134.923 10.3745 135.16 10.3392 135.358 10.2685C135.556 10.1907 135.768 10.0883 135.994 9.96104C136.178 9.85502 136.301 9.80201 136.365 9.80201ZM134.51 6.37768C134.057 6.37768 133.693 6.51903 133.418 6.80174C133.149 7.08446 132.99 7.48378 132.941 7.99973H135.941C135.927 7.47672 135.796 7.07739 135.549 6.80174C135.301 6.51903 134.955 6.37768 134.51 6.37768ZM142.104 3.47283C142.238 3.47283 142.344 3.5117 142.422 3.58944C142.5 3.66719 142.539 3.76614 142.539 3.88629V10.6289C142.539 10.7562 142.5 10.8586 142.422 10.9364C142.344 11.0141 142.238 11.053 142.104 11.053C141.97 11.053 141.864 11.0141 141.786 10.9364C141.715 10.8586 141.68 10.7562 141.68 10.6289V10.0565C141.524 10.3816 141.295 10.6325 140.991 10.8092C140.694 10.9859 140.344 11.0742 139.941 11.0742C139.489 11.0742 139.09 10.9611 138.743 10.735C138.397 10.5088 138.128 10.1943 137.938 9.79141C137.747 9.38148 137.651 8.90794 137.651 8.37079C137.651 7.84071 137.747 7.37423 137.938 6.97137C138.128 6.56851 138.397 6.25753 138.743 6.03843C139.09 5.81932 139.489 5.70977 139.941 5.70977C140.344 5.70977 140.694 5.79812 140.991 5.97482C141.295 6.15151 141.524 6.40242 141.68 6.72753V3.88629C141.68 3.75907 141.715 3.66012 141.786 3.58944C141.864 3.5117 141.97 3.47283 142.104 3.47283ZM140.111 10.3639C140.613 10.3639 140.998 10.1943 141.266 9.85502C141.542 9.5087 141.68 9.02102 141.68 8.39199C141.68 7.76296 141.542 7.27882 141.266 6.93957C140.998 6.60031 140.613 6.43069 140.111 6.43069C139.609 6.43069 139.217 6.60031 138.934 6.93957C138.658 7.27882 138.521 7.75589 138.521 8.37079C138.521 8.99982 138.658 9.49103 138.934 9.84442C139.217 10.1907 139.609 10.3639 140.111 10.3639ZM149.46 5.70977C149.912 5.70977 150.312 5.81932 150.658 6.03843C151.004 6.25753 151.273 6.56851 151.464 6.97137C151.654 7.37423 151.75 7.84071 151.75 8.37079C151.75 8.90794 151.654 9.38148 151.464 9.79141C151.273 10.1943 151.004 10.5088 150.658 10.735C150.312 10.9611 149.912 11.0742 149.46 11.0742C149.057 11.0742 148.704 10.9859 148.4 10.8092C148.103 10.6325 147.877 10.3816 147.721 10.0565V10.6289C147.721 10.7562 147.682 10.8586 147.605 10.9364C147.534 11.0141 147.431 11.053 147.297 11.053C147.163 11.053 147.057 11.0141 146.979 10.9364C146.901 10.8586 146.863 10.7562 146.863 10.6289V3.88629C146.863 3.76614 146.901 3.66719 146.979 3.58944C147.057 3.5117 147.163 3.47283 147.297 3.47283C147.431 3.47283 147.534 3.5117 147.605 3.58944C147.682 3.66012 147.721 3.75907 147.721 3.88629V6.72753C147.877 6.40242 148.103 6.15151 148.4 5.97482C148.704 5.79812 149.057 5.70977 149.46 5.70977ZM149.29 10.3639C149.792 10.3639 150.181 10.1907 150.456 9.84442C150.732 9.49103 150.87 8.99982 150.87 8.37079C150.87 7.75589 150.732 7.27882 150.456 6.93957C150.181 6.60031 149.792 6.43069 149.29 6.43069C148.788 6.43069 148.4 6.60031 148.124 6.93957C147.856 7.27882 147.721 7.76296 147.721 8.39199C147.721 9.02102 147.856 9.5087 148.124 9.85502C148.4 10.1943 148.788 10.3639 149.29 10.3639ZM156.692 5.99602C156.77 5.82639 156.893 5.74158 157.063 5.74158C157.169 5.74158 157.265 5.77692 157.349 5.8476C157.434 5.91827 157.477 6.00662 157.477 6.11264C157.477 6.17625 157.462 6.23279 157.434 6.28226L154.455 12.7069C154.42 12.7846 154.367 12.8447 154.296 12.8871C154.232 12.9295 154.165 12.9507 154.095 12.9507C153.989 12.9507 153.893 12.9154 153.808 12.8447C153.731 12.7811 153.692 12.6963 153.692 12.5902C153.692 12.5337 153.706 12.4772 153.734 12.4206L154.476 10.8198L152.377 6.28226C152.349 6.23279 152.335 6.17978 152.335 6.12324C152.335 6.01722 152.381 5.92534 152.473 5.8476C152.572 5.76985 152.678 5.73098 152.791 5.73098C152.861 5.73098 152.928 5.75218 152.992 5.79459C153.063 5.83699 153.116 5.89707 153.151 5.97482L154.922 9.95044L156.692 5.99602Z" fill="white"/>
</svg>
