<svg width="10" height="9" viewBox="0 0 10 9" fill="none" xmlns="http://www.w3.org/2000/svg">
<path d="M4.87173 8.67069C6.06293 8.67069 7.09427 8.24346 7.93719 7.40053C8.77985 6.55774 9.20721 5.52654 9.20721 4.33521C9.20721 3.14429 8.77998 2.11295 7.93706 1.26988C7.09413 0.427231 6.06279 0 4.87173 0C3.6804 0 2.6492 0.427231 1.80641 1.27002C0.963623 2.11281 0.536255 3.14415 0.536255 4.33521C0.536255 5.52654 0.963623 6.55788 1.80641 7.40067C2.64948 8.24332 3.68082 8.67069 4.87173 8.67069ZM2.55238 2.01585C3.19907 1.36917 3.95767 1.05483 4.87173 1.05483C5.78566 1.05483 6.5444 1.36917 7.19122 2.01585C7.83791 2.66267 8.15239 3.42142 8.15239 4.33521C8.15239 5.24927 7.83791 6.00787 7.19122 6.6547C6.5444 7.30152 5.78566 7.61586 4.87173 7.61586C3.95795 7.61586 3.19934 7.30138 2.55238 6.6547C1.90556 6.00801 1.59108 5.24927 1.59108 4.33521C1.59108 3.42142 1.90556 2.66267 2.55238 2.01585Z" fill="black"/>
</svg>
